PathFileType	4	(X/Y/Z)	/Users/itak/Documents/Research/Walk-IL/dataset/trc/00014_00004.trc
DataRate	CameraRate	NumFrames	NumMarkers	Units	OrigDataRate	OrigDataStartFrame	OrigNumFrames
100.000000	100.000000	4	56	mm	100.000000	0	544
Frame#	Time	LMT1			RPSI			LPSI			L3			STRN			T10			C7			CLAV			RBAK			LBAK			LSHO			LUPA			LAEL			LAOL			LWTS			LWPS			LFRA			LIFD			LHPS			RSHO			RUPA			RAEL			RAOL			RWTS			RWPS			RFRA			RIFD			RHTS			RHPS			RBHD			LFHD			RFHD			LBHD			LHIP			RHIP			RASI			LASI			LKNE			LTHI			LANK			LTIP			LTOE			LMT5			LHEE			RKNE			RANK			RTIP			RTOE			RMT1			RMT5			RHEE			LHTS			RTHI			*53			*54			*55			
		X1	Y1	Z1	X2	Y2	Z2	X3	Y3	Z3	X4	Y4	Z4	X5	Y5	Z5	X6	Y6	Z6	X7	Y7	Z7	X8	Y8	Z8	X9	Y9	Z9	X10	Y10	Z10	X11	Y11	Z11	X12	Y12	Z12	X13	Y13	Z13	X14	Y14	Z14	X15	Y15	Z15	X16	Y16	Z16	X17	Y17	Z17	X18	Y18	Z18	X19	Y19	Z19	X20	Y20	Z20	X21	Y21	Z21	X22	Y22	Z22	X23	Y23	Z23	X24	Y24	Z24	X25	Y25	Z25	X26	Y26	Z26	X27	Y27	Z27	X28	Y28	Z28	X29	Y29	Z29	X30	Y30	Z30	X31	Y31	Z31	X32	Y32	Z32	X33	Y33	Z33	X34	Y34	Z34	X35	Y35	Z35	X36	Y36	Z36	X37	Y37	Z37	X38	Y38	Z38	X39	Y39	Z39	X40	Y40	Z40	X41	Y41	Z41	X42	Y42	Z42	X43	Y43	Z43	X44	Y44	Z44	X45	Y45	Z45	X46	Y46	Z46	X47	Y47	Z47	X48	Y48	Z48	X49	Y49	Z49	X50	Y50	Z50	X51	Y51	Z51	X52	Y52	Z52	X53	Y53	Z53	X54	Y54	Z54	X55	Y55	Z55	X56	Y56	Z56	

1	0	1164.572875976562	29.0667839050293	-384.4041748046875	995.565673828125	1052.640380859375	-239.7582702636719	978.313232421875	1045.583618164062	-402.6282043457031	979.436767578125	1110.794677734375	-329.1186218261719	1189.951293945312	1314.360473632812	-338.975341796875	943.233642578125	1250.583251953125	-330.9309387207031	972.287109375	1520.6259765625	-346.2534790039062	1139.306518554688	1437.848510742188	-343.1775512695312	933.3236694335938	1380.489135742188	-263.6226196289062	956.6697998046875	1476.688720703125	-442.8686218261719	1058.268920898438	1489.369262695312	-519.3721923828125	1031.9384765625	1362.459594726562	-595.3643798828125	1038.417846679688	1143.97216796875	-615.7080078125	985.7774047851562	1131.550537109375	-524.6666259765625	1128.26904296875	892.2583618164062	-560.58740234375	1049.954467773438	876.8318481445312	-600.4143676757812	1051.611694335938	1028.00439453125	-620.5388793945312	1155.361083984375	708.5027465820312	-542.8877563476562	1082.272827148438	787.1717529296875	-599.88427734375	1055.99658203125	1513.260864257812	-172.8984680175781	1048.884399414062	1440.327392578125	-99.04511260986328	1028.987670898438	1169.958374023438	-77.47855377197266	1027.646484375	1142.203369140625	-173.3056488037109	1172.217529296875	919.2675170898438	-109.8861389160156	1107.70751953125	900.7928466796875	-46.29760360717773	1046.810546875	1095.28125	-62.5723876953125	1203.060913085938	733.6809692382812	-121.057502746582	1210.627075195312	810.7052612304688	-93.7886962890625	1157.433837890625	803.595947265625	-43.76837921142578	1003.544738769531	1694.764038085938	-271.820556640625	1185.732666015625	1738.75830078125	-369.2681274414062	1174.304321289062	1735.122192382812	-271.7607727050781	1012.275939941406	1703.817749023438	-415.4203491210938	1067.25048828125	949.9349365234375	-516.4891357421875	1118.737915039062	948.3737182617188	-147.5874938964844	1213.080688476562	982.7984619140625	-229.3582611083984	1187.570068359375	999.252685546875	-463.5852966308594	1105.900146484375	504.7566528320312	-465.481201171875	1109.65478515625	630.0669555664062	-494.8869934082031	1005.506103515625	28.17440223693848	-457.1761169433594	1023.229187011719	275.4959106445312	-479.28369140625	1226.126953125	25.56727981567383	-391.5066528320312	1129.292602539062	26.37554740905762	-475.7434692382812	936.1190795898438	35.54889678955078	-403.8137512207031	1104.140991210938	511.1379699707031	-197.6095428466797	975.5667114257812	34.67252349853516	-214.5241546630859	1072.061157226562	391.7666320800781	-195.7957763671875	1206.103271484375	30.85554885864258	-261.2595520019531	1141.638916015625	36.27097320556641	-290.7111511230469	1124.919311523438	29.93359565734863	-194.5959320068359	917.9500122070312	37.12663269042969	-257.7587280273438	1148.0830078125	797.3930053710938	-574.1322631835938	1137.248657226562	779.7957153320312	-154.3416442871094	nan	nan	nan	nan	nan	nan	nan	nan	nan	
2	0.01	1164.568115234375	29.05702781677246	-384.4301147460938	995.5786743164062	1052.647094726562	-239.7375793457031	978.3345947265625	1045.57373046875	-402.6004638671875	979.4517211914062	1110.7822265625	-329.07421875	1189.951416015625	1314.352905273438	-339.0126647949219	943.2612915039062	1250.579833984375	-330.8522338867188	972.2875366210938	1520.607788085938	-346.1775817871094	1139.31787109375	1437.838134765625	-343.1945495605469	933.3782348632812	1380.484252929688	-263.5602722167969	956.6354370117188	1476.69384765625	-442.8056030273438	1058.217895507812	1489.36669921875	-519.34716796875	1031.824340820312	1362.466186523438	-595.353271484375	1038.3671875	1143.997680664062	-615.7460327148438	985.7802124023438	1131.508544921875	-524.693115234375	1128.382202148438	892.3006591796875	-560.7125854492188	1050.080688476562	876.8453369140625	-600.4965209960938	1051.636474609375	1028.026123046875	-620.603759765625	1155.565307617188	708.4672241210938	-542.994873046875	1082.46728515625	787.1949462890625	-600.0125732421875	1056.07275390625	1513.2431640625	-172.8701782226562	1049.000366210938	1440.3125	-99.02395629882812	1029.114868164062	1169.946044921875	-77.48663330078125	1027.752319335938	1142.197631835938	-173.3095245361328	1172.240844726562	919.2479858398438	-110.0321044921875	1107.775756835938	900.7592163085938	-46.36851119995117	1046.939819335938	1095.265869140625	-62.59733200073242	1203.00732421875	733.578857421875	-121.1963272094727	1210.613647460938	810.643310546875	-93.97950744628906	1157.540893554688	803.5603637695312	-43.82299041748047	1003.831481933594	1694.865356445312	-271.7010498046875	1185.90087890625	1738.6142578125	-369.3472900390625	1174.55859375	1734.942749023438	-271.8106079101562	1012.353088378906	1703.920288085938	-415.3033447265625	1067.175170898438	949.9149169921875	-516.5013427734375	1118.802978515625	948.3536376953125	-147.6275634765625	1213.155639648438	982.8015747070312	-229.4173126220703	1187.52783203125	999.2413330078125	-463.6116027832031	1105.900390625	504.7568054199219	-465.4969177246094	1106.99853515625	631.3366088867188	-495.4181823730469	1005.505615234375	28.17295837402344	-457.1732482910156	1023.224426269531	275.4986572265625	-479.2916564941406	1226.12841796875	25.56871032714844	-391.5089111328125	1129.292602539062	26.37498474121094	-475.7437133789062	936.1231079101562	35.55128479003906	-403.8137512207031	1104.17041015625	511.1393432617188	-197.6186981201172	975.5680541992188	34.67258834838867	-214.5236053466797	1072.078247070312	391.7669677734375	-195.7916412353516	1206.107177734375	30.85076713562012	-261.2626037597656	1141.638793945312	36.26750564575195	-290.7107849121094	1124.920532226562	29.93450546264648	-194.5957489013672	917.94873046875	37.12518310546875	-257.748046875	1148.264282226562	797.477783203125	-574.2907104492188	1137.301391601562	779.7864379882812	-154.3415222167969	nan	nan	nan	nan	nan	nan	nan	nan	nan	
3	0.02	1164.564208984375	29.04910659790039	-384.4568481445312	995.6019287109375	1052.654174804688	-239.7113800048828	978.353759765625	1045.559814453125	-402.5675048828125	979.472412109375	1110.765625	-329.0176696777344	1189.953002929688	1314.340209960938	-339.0562744140625	943.296630859375	1250.57470703125	-330.7474060058594	972.2939453125	1520.582763671875	-346.0724792480469	1139.33447265625	1437.824340820312	-343.2149353027344	933.4515991210938	1380.476806640625	-263.475341796875	956.5921630859375	1476.699462890625	-442.721435546875	1058.150634765625	1489.364868164062	-519.310791015625	1031.68017578125	1362.473022460938	-595.3339233398438	1038.303955078125	1144.02978515625	-615.7921752929688	985.7828979492188	1131.4560546875	-524.7258911132812	1128.539916992188	892.3560791015625	-560.8716430664062	1050.249389648438	876.8622436523438	-600.604248046875	1051.670776367188	1028.0546875	-620.6867065429688	1155.847778320312	708.4366455078125	-543.1458740234375	1082.724487304688	787.2308349609375	-600.177490234375	1056.174682617188	1513.218505859375	-172.8321228027344	1049.15576171875	1440.291015625	-98.99149322509766	1029.281372070312	1169.928833007812	-77.48977661132812	1027.878173828125	1142.190551757812	-173.3088989257812	1172.263916015625	919.21044921875	-110.2118072509766	1107.852294921875	900.7122192382812	-46.45446014404297	1047.0966796875	1095.2451171875	-62.62694931030273	1202.9267578125	733.4458618164062	-121.3697738647461	1210.587768554688	810.5579833984375	-94.21270751953125	1157.677734375	803.5116577148438	-43.88058090209961	1004.202819824219	1694.99560546875	-271.5400695800781	1186.124877929688	1738.42822265625	-369.4544067382812	1174.899536132812	1734.712890625	-271.8759765625	1012.45654296875	1704.054321289062	-415.1468811035156	1067.07470703125	949.8875732421875	-516.5174560546875	1118.900512695312	948.3265380859375	-147.6753234863281	1213.250122070312	982.8025512695312	-229.488525390625	1187.478637695312	999.2321166992188	-463.6484375	1105.901611328125	504.7572326660156	-465.5186462402344	1103.68212890625	632.9014282226562	-496.1271667480469	1005.5048828125	28.17118072509766	-457.1702575683594	1023.219421386719	275.5016174316406	-479.3017272949219	1226.129760742188	25.56991195678711	-391.5115356445312	1129.29248046875	26.37407302856445	-475.7441101074219	936.127197265625	35.55366516113281	-403.8137512207031	1104.208374023438	511.1423950195312	-197.6321105957031	975.5697631835938	34.67281723022461	-214.5233306884766	1072.098510742188	391.7666931152344	-195.7876281738281	1206.111694335938	30.84505462646484	-261.2661743164062	1141.638549804688	36.26318359375	-290.7100830078125	1124.922241210938	29.93585014343262	-194.5955657958984	917.947509765625	37.12324905395508	-257.735107421875	1148.505981445312	797.5872192382812	-574.483642578125	1137.36669921875	779.7759399414062	-154.3429565429688	nan	nan	nan	nan	nan	nan	nan	nan	nan	
4	0.03	1164.5625	29.04568862915039	-384.4801025390625	995.6371459960938	1052.660278320312	-239.6810455322266	978.365966796875	1045.541870117188	-402.5321044921875	979.4987182617188	1110.744750976562	-328.9515991210938	1189.956787109375	1314.32080078125	-339.1018981933594	943.3384399414062	1250.567260742188	-330.6187133789062	972.3093872070312	1520.55126953125	-345.9382019042969	1139.356689453125	1437.8076171875	-343.2368469238281	933.542724609375	1380.466430664062	-263.3682556152344	956.5423583984375	1476.705078125	-442.6173706054688	1058.068969726562	1489.364501953125	-519.2620239257812	1031.513061523438	1362.47900390625	-595.3040771484375	1038.231811523438	1144.067016601562	-615.843017578125	985.784912109375	1131.395751953125	-524.7627563476562	1128.742309570312	892.4228515625	-561.056884765625	1050.457763671875	876.8818359375	-600.7339477539062	1051.71484375	1028.089599609375	-620.7838745117188	1156.20849609375	708.4212036132812	-543.341064453125	1083.0390625	787.2814331054688	-600.3724975585938	1056.300415039062	1513.186645507812	-172.7844085693359	1049.348266601562	1440.2626953125	-98.94593811035156	1029.482299804688	1169.90673828125	-77.48395538330078	1028.014038085938	1142.181884765625	-173.3006134033203	1172.281860351562	919.1493530273438	-110.4131164550781	1107.927978515625	900.6513671875	-46.54892730712891	1047.270629882812	1095.219116210938	-62.65834426879883	1202.814575195312	733.2853393554688	-121.5667419433594	1210.544921875	810.447998046875	-94.47195434570312	1157.836547851562	803.4493408203125	-43.93244171142578	1004.645874023438	1695.14990234375	-271.3394165039062	1186.400390625	1738.206665039062	-369.5879211425781	1175.321899414062	1734.441528320312	-271.9554443359375	1012.584777832031	1704.215576171875	-414.9531860351562	1066.95068359375	949.852783203125	-516.537109375	1119.0341796875	948.2928466796875	-147.7267456054688	1213.360107421875	982.7999877929688	-229.5670623779297	1187.427124023438	999.2283325195312	-463.6961059570312	1105.904418945312	504.7581481933594	-465.5465087890625	1099.920776367188	634.653564453125	-496.9829711914062	1005.503967285156	28.16902351379395	-457.1676025390625	1023.214782714844	275.5042724609375	-479.3133850097656	1226.130737304688	25.57055282592773	-391.5143127441406	1129.292114257812	26.37274169921875	-475.7446899414062	936.130859375	35.55570983886719	-403.8136901855469	1104.253295898438	511.1476745605469	-197.6501312255859	975.5718994140625	34.67325973510742	-214.523681640625	1072.120239257812	391.7655944824219	-195.7845916748047	1206.116455078125	30.83885765075684	-261.2698669433594	1141.638305664062	36.25825119018555	-290.7088928222656	1124.924194335938	29.93771743774414	-194.5954132080078	917.946533203125	37.12073516845703	-257.7207946777344	1148.804809570312	797.7191162109375	-574.69970703125	1137.441162109375	779.7651977539062	-154.3468017578125	nan	nan	nan	nan	nan	nan	nan	nan	nan	
